PathFileType	4	(X/Y/Z)	/Users/niels/Desktop/University/Third Semester/Perception and Action/Exam/Gymnastics Motion Tracking/Code for Gym Tracking/Analyzed Data/Webcam_Backflip/id12_1_baseline_Sports2D/id12_1_baseline_Sports2D_px_person00.trc
DataRate	CameraRate	NumFrames	NumMarkers	Units	OrigDataRate	OrigDataStartFrame	OrigNumFrames
29.705882352941178	29.705882352941178	7	22	m	29.705882352941178	12	102
Frame#	Time	Hip			RHip			RKnee			RAnkle			RBigToe			RSmallToe			RHeel			LHip			LKnee			LAnkle			LBigToe			LSmallToe			LHeel			Neck			Head			Nose			RShoulder			RElbow			RWrist			LShoulder			LElbow			LWrist		
		X1	Y1	Z1	X2	Y2	Z2	X3	Y3	Z3	X4	Y4	Z4	X5	Y5	Z5	X6	Y6	Z6	X7	Y7	Z7	X8	Y8	Z8	X9	Y9	Z9	X10	Y10	Z10	X11	Y11	Z11	X12	Y12	Z12	X13	Y13	Z13	X14	Y14	Z14	X15	Y15	Z15	X16	Y16	Z16	X17	Y17	Z17	X18	Y18	Z18	X19	Y19	Z19	X20	Y20	Z20	X21	Y21	Z21	X22	Y22	Z22
12	0.403960396039604	1.0574285849605936	-0.5363370938639485	0.0	1.048315759281678	-0.5434796858213538	0.0	1.2449664528052764	-0.5836250077349824	0.0	1.2910784225811103	-0.6775184875182064	0.0	1.4907290146328305	-0.6856055909705759	0.0	1.4811266289535632	-0.6922349260410088	0.0	1.2978710271709717	-0.8050186368067992	0.0	1.0720488199725615	-0.5382409540717991	0.0	1.0826488860301622	-0.7352687431552763	0.0	1.0574650603354276	-0.9365322307102731	0.0	1.1915898198819348	-0.9618488639748193	0.0	1.1352556618785379	-0.9712077342039799	0.0	0.997970926927799	-0.972052955615749	0.0	0.9959802410733639	-0.28545004943722063	0.0	1.0205844870044598	-0.1591464927321335	0.0	1.0290913865787428	-0.231061820846697	0.0	0.9421310820134782	-0.33114343086130726	0.0	0.9044094333293049	-0.46419068298731425	0.0	0.8796007636635519	-0.5968886683198411	0.0	1.0398797685547656	-0.33263951444346196	0.0	1.089946125296919	-0.4428262391242528	0.0	1.1717623878309615	-0.4327313559316504	0.0
13	0.4376237623762377	1.054934717723273	-0.5381179514361801	0.0	1.0470676950354636	-0.5443498518118562	0.0	1.2536647391361224	-0.5815650743569678	0.0	1.320569084217283	-0.6846320125606908	0.0	1.477441958093804	-0.6963920516078286	0.0	1.4632133234437494	-0.7034981876537587	0.0	1.3275129753496522	-0.7949095836792455	0.0	1.0674550593177807	-0.5407809070234258	0.0	1.0686084297999736	-0.7525318079352158	0.0	1.0303308912962055	-0.9471069867940661	0.0	1.1360990760559389	-0.9728151570671533	0.0	1.103350814765631	-0.9715995628997255	0.0	0.9973111959619917	-0.9723333984953214	0.0	0.9964133121522071	-0.28483508250406725	0.0	1.0204320561608695	-0.15908789625948205	0.0	1.0296316209208014	-0.2308502501973246	0.0	0.9423723451820514	-0.33082808743150194	0.0	0.9073370128723127	-0.46538913974178475	0.0	0.8922381527883899	-0.5982042650431753	0.0	1.0395750024969452	-0.3331629959003007	0.0	1.0881486547220973	-0.44587970935310006	0.0	1.173020348018242	-0.43379273877196056	0.0
14	0.4712871287128713	1.0519723977212319	-0.5402526862846704	0.0	1.0452536570634219	-0.5453630403467695	0.0	1.2506577821509894	-0.590246525045475	0.0	1.3192636783769063	-0.7199199563839322	0.0	1.4441354690456827	-0.7352573804922252	0.0	1.4256051556422789	-0.7437966406530482	0.0	1.3224460314258222	-0.8054035629962962	0.0	1.0632053790859535	-0.5430718573436967	0.0	1.062851176504254	-0.7599506493540487	0.0	1.0193755733256866	-0.9511692457389982	0.0	1.1077580343867	-0.9768243867452879	0.0	1.091214948292756	-0.970867083591312	0.0	0.998198246421032	-0.9714316862733883	0.0	0.9970404013027373	-0.28392262774384575	0.0	1.0204478063856992	-0.15898373579789876	0.0	1.0302925949821142	-0.23032005089082733	0.0	0.9432509216853046	-0.3305048668800872	0.0	0.911459870388958	-0.4668618313765156	0.0	0.9080155565997526	-0.598924021407435	0.0	1.0385088409810832	-0.3331650074431565	0.0	1.0840653650777108	-0.44913834253842516	0.0	1.1729546987596349	-0.4374126672133267	0.0
15	0.504950495049505	1.048982891781577	-0.5430093339202068	0.0	1.0428781017964486	-0.5468289496124343	0.0	1.2362084379501197	-0.6076610806784613	0.0	1.2904315510704707	-0.7707302208388896	0.0	1.394258774482927	-0.7904535080713155	0.0	1.3731541680731663	-0.8007309258373838	0.0	1.288297604035647	-0.8315907663661983	0.0	1.0602072418816426	-0.5451590223198431	0.0	1.064326535974171	-0.7603587352925099	0.0	1.0221995540792894	-0.9502317769074664	0.0	1.1020208602208375	-0.975905174595614	0.0	1.0943585066665225	-0.9686759083925627	0.0	1.0009536701743589	-0.9691804671862232	0.0	0.9980168946022144	-0.2827943882781653	0.0	1.0206442445332138	-0.15892046849250283	0.0	1.0310458968259981	-0.22946198023920572	0.0	0.9445975279550892	-0.3301468967566565	0.0	0.9169331684220529	-0.4686303641515229	0.0	0.9267950363273372	-0.5987050847474487	0.0	1.0370050633149845	-0.3325308041570735	0.0	1.0780646628871984	-0.45237681629220966	0.0	1.1712867263486015	-0.4440647582833916	0.0
16	0.5386138613861386	1.046302230379934	-0.5465342750624131	0.0	1.039814646311148	-0.5490423697583816	0.0	1.211300702663442	-0.6310018518900621	0.0	1.2406312759513705	-0.8237476335092272	0.0	1.333747339060092	-0.848541483283255	0.0	1.3116878644089847	-0.85987375916	0.0	1.2330676067470012	-0.8660508846235905	0.0	1.0589755139484258	-0.5472211930327465	0.0	1.0713729136183452	-0.7567038483282106	0.0	1.03481395476925	-0.9458508685826392	0.0	1.1112778838847588	-0.9722498237963405	0.0	1.107355815467616	-0.9651955125409825	0.0	1.005682893096718	-0.9657127148244776	0.0	0.9993686146640788	-0.28150223272438796	0.0	1.0210601931207486	-0.15889358755544172	0.0	1.0317923838200036	-0.22838282480850872	0.0	0.9462578568235855	-0.32962166453875147	0.0	0.9238622867234613	-0.47044280007823575	0.0	0.9483273114273882	-0.5972651336194015	0.0	1.0353265445345845	-0.33122994329921657	0.0	1.0712418232039924	-0.4551794515928932	0.0	1.1678826775039324	-0.4536446002222532	0.0
17	0.5722772277227723	1.0437115344931267	-0.5507763547812436	0.0	1.035802246814484	-0.5521738490958337	0.0	1.178722502775557	-0.6577855590085562	0.0	1.179022825621254	-0.8705050190699187	0.0	1.269354546158496	-0.8998448630608814	0.0	1.2469223253178296	-0.9111840421474036	0.0	1.1664152266746837	-0.90155502618059	0.0	1.0589212524043095	-0.5496010168373737	0.0	1.081982403034233	-0.7513794427018692	0.0	1.0514765343708858	-0.9395914299849368	0.0	1.1269006155558954	-0.9679234534807116	0.0	1.1239765979014185	-0.9612018525081975	0.0	1.0118383544614253	-0.9614790081417983	0.0	1.000900895206542	-0.28015063536472246	0.0	1.0216860465993918	-0.15880657422458733	0.0	1.0324909931769086	-0.22727622804617498	0.0	0.9482351845894014	-0.32879659597174793	0.0	0.9322807581601675	-0.4717907264921247	0.0	0.9721984089743287	-0.5943950288448695	0.0	1.033529515547617	-0.3293571388468155	0.0	1.0648897564685325	-0.45704435160267637	0.0	1.1625985016563876	-0.4656036046413884	0.0
18	0.605940594059406	1.0403355855020924	-0.5553654002038512	0.0	1.0304308650743985	-0.5560033749086578	0.0	1.1443018737254007	-0.6856560699995458	0.0	1.1164811486466484	-0.9067379737736515	0.0	1.2076528402460194	-0.939398577167182	0.0	1.184960073970478	-0.9499472253149596	0.0	1.0994513412533027	-0.9321667454077707	0.0	1.0583875931114346	-0.552486382407081	0.0	1.0931183145867802	-0.7463516016737682	0.0	1.0644666313081377	-0.9334674455824327	0.0	1.1398870930131964	-0.9648394906760017	0.0	1.136771213100706	-0.9580565492325934	0.0	1.0174895186183475	-0.9574865891822472	0.0	1.0022511393044395	-0.2788509155187392	0.0	1.02241334606039	-0.15851726004074257	0.0	1.033092230479681	-0.22621265242951225	0.0	0.950556716346773	-0.3276939389973782	0.0	0.9421904534425851	-0.47225510136276605	0.0	0.9978163487181214	-0.589974552340688	0.0	1.0315164345776067	-0.32708049753818946	0.0	1.0599305952527653	-0.4576529347387303	0.0	1.155464050650508	-0.47921010951640397	0.0
